inDegrees=yes
name=coleta1_motion.mot
DataType=double
version=3
OpenSimVersion=4.4-2022-07-23-0e9fedc
endheader
time	pelvis_tilt	pelvis_list	pelvis_rotation	pelvis_tx	pelvis_ty	pelvis_tz	hip_flexion_r	hip_adduction_r	hip_rotation_r	knee_angle_r	knee_angle_r_beta	ankle_angle_r	subtalar_angle_r	mtp_angle_r	hip_flexion_l	hip_adduction_l	hip_rotation_l	knee_angle_l	knee_angle_l_beta	ankle_angle_l	subtalar_angle_l	mtp_angle_l	lumbar_extension	lumbar_bending	lumbar_rotation	arm_flex_r	arm_add_r	arm_rot_r	elbow_flex_r	pro_sup_r	wrist_flex_r	wrist_dev_r	arm_flex_l	arm_add_l	arm_rot_l	elbow_flex_l	pro_sup_l	wrist_flex_l	wrist_dev_l
5.002087116241455	0	0	0	0	0.93	0	4.947454039737406	-49.48919697913008	-39.99902373136393	66.94165962339351	1.168352367177564	-5.659163016336393	0	0	28.70936032567205	-10.34915068829048	0	54.39181319209448	0.9493162263317356	-5.659163016340091	0	0	0	0	0	0	0	0	0	0	0	0	0	0	0	0	0	0	0
5.010090827941894	0	0	0	0	0.93	0	4.443768266445709	-49.4000589803742	-39.9990234629127	66.91651670337171	1.167913540439618	-5.657210808209217	0	0	28.72197633234333	-10.34833666940169	0	54.3953142419602	0.949377331179169	-5.657210808212906	0	0	0	0	0	0	0	0	4.18985944254145e-46	3.539545417261925e-46	0	0	0	0	0	4.18985944254145e-46	3.539545417261925e-46	0	0
5.02009105682373	0	0	0	0	0.93	0	4.395299578271127	-48.66105057094986	-39.9990296930816	66.2532273728749	1.1563369577291	-5.653802920760753	0	0	28.74322689378181	-10.34692328374007	0	54.40105145643808	0.9494774644617011	-5.653802920764496	0	0	0	0	0	0	0	0	2.991311092651875e-39	1.96016816025331e-46	0	0	0	0	0	2.991311092651875e-39	0	0	0
5.046098947525024	0	0	0	0	0.93	0	4.246109955255005	-47.34078811134079	-39.99904413359625	65.04813527080253	1.135304132758157	-5.644945183308073	0	0	28.82001755891577	-10.34300656920089	0	54.42645507441971	0.9499208412373993	-5.644945183371863	0	0	0	0	0	0	0	0	0	0	0	0	0	0	0	2.489559100759509e-40	0	0	0
5.052088022232056	1.615191518560056e-27	7.082183837052454e-19	-2.87560001629777e-27	5.67768353101729e-21	0.93	2.706341888989232e-21	3.8578152527849	-47.33052080431253	-39.99904225228152	65.15760508300359	1.137214741412606	-5.642874499890066	-9.213267737463775e-19	-9.478330575181911e-25	28.83338010720085	-10.3421420789156	0	54.43012833241019	0.9499849516836084	-5.642874499953816	-1.169649848693228e-20	-1.200469517068413e-25	0	-1.485405209210119e-19	-7.558485724524277e-30	-2.557548796397143e-16	3.129983555229419e-23	-3.641967352947896e-14	3.053429462041047e-17	3.049815043193362e-17	-4.838056180589027e-19	-3.208824356528974e-18	5.071343553054853e-14	1.169593820546546e-14	2.62937341264995e-14	3.05355446823286e-17	3.054889325428747e-17	3.198416011009716e-18	-3.783592521058205e-19
5.057095766067505	0	0	0	0	0.93	0	3.798687945225971	-46.03746582691299	-39.99905622410698	63.96681182397559	1.116431478332014	-5.634519152439539	0	0	28.90720143101438	-10.33843196403194	0	54.45470789380029	0.9504139459585617	-5.63451915250272	0	0	0	0	0	0	0	0	5.152292874842198e-39	0	0	0	0	0	0	5.152292874842198e-39	5.152292835638835e-39	0	0
5.062085151672363	4.327576756543351e-26	3.195234627939999e-18	6.666413115298801e-26	-1.678603109419026e-20	0.93	9.238480575240139e-20	3.484257018658055	-46.07254858485013	-39.99905360796102	64.13906607066622	1.119437882087307	-5.632375411005425	1.774791653150925e-17	-2.844885491955395e-17	28.92120518618656	-10.33753380002625	0	54.45855840296145	0.9504811500213022	-5.632375411068912	1.238448356023558e-17	3.598473528272862e-17	0	-5.186976756971469e-21	-1.133485950886139e-30	-2.186931573654359e-15	-1.397461759976464e-23	-5.525539384757021e-15	3.674612182648041e-16	3.675170407133689e-16	-1.425027683799615e-18	-1.168842307312584e-18	1.097749402830803e-14	5.51642799970316e-15	9.019252220410836e-16	3.674612232639199e-16	3.67292524184758e-16	-4.973824499170755e-19	-7.794921234580143e-19
5.070096969604492	2.349803795187707e-28	7.871651032716262e-21	-3.919202232056858e-28	7.167480375400106e-23	0.93	-1.91534026770694e-22	3.551535203624609	-45.47960646001244	-39.99905907777122	63.59974414434589	1.11002493874482	-5.629602101873888	9.636327826000923e-19	1.731229079732307e-22	28.9387000866821	-10.33637904606243	-3.100494242240102e-21	54.4632621545258	0.9505632459732959	-5.629602101937117	-3.605983732176005e-20	8.213381019971563e-23	-1.578534503957406e-30	4.741329567800116e-21	-2.339007990312112e-31	-9.962734656005097e-17	-2.450577372898379e-25	-1.510688983324719e-15	1.547634952648622e-16	1.547635488608563e-16	2.500272752135941e-20	4.953383106722949e-23	-3.848755415824819e-16	9.690666474833162e-16	3.351987485335099e-16	1.547634952764325e-16	1.54763548814511e-16	3.262740913777675e-21	-5.103000659967698e-22
5.074084997177124	5.517382872562698e-33	0	-3.448364295351686e-34	0	0.93	-3.624057222554199e-56	3.260877840250241	-45.58674861867922	-39.99905476167176	63.91211676032301	1.115476869386688	-5.627508793959636	9.34681015135436e-53	0	28.95378677977374	-10.33548158450292	-3.100494242240102e-21	54.46758130864512	0.950638629433579	-5.627508794022661	3.505053806757885e-54	-7.844155247871243e-57	0	2.920878172298238e-55	0	0	3.464421531605761e-45	-3.828453437994746e-50	3.869262806176871e-39	1.052357267868557e-38	2.920878172298238e-54	0	7.656906875989492e-50	0	-1.914226718997373e-50	3.869262806176871e-39	1.052357267868557e-38	-4.381317258447356e-55	0
5.082086086273193	0	0	0	0	0.93	0	3.067881429258204	-45.58791037296113	-39.99905381140419	63.99894065728844	1.116992232258147	-5.62517522910142	0	0	28.96898038050471	-10.33450363118624	-3.100494242240102e-21	54.47173333834856	0.9507110960225448	-5.62517522916422	0	0	0	0	0	0	0	0	0	2.106975606738926e-38	0	0	0	0	0	0	2.106975606738926e-38	0	0
5.090098857879639	0	0	0	0	0.93	0	2.956107558794438	-45.58668331065108	-39.99905303078824	64.02421802003681	1.117433405464327	-5.624193664813848	0	0	28.97482501489431	-10.33410018347162	-3.100494242240102e-21	54.47326435110718	0.9507378172360728	-5.624193664876541	0	0	0	0	0	0	0	0	0	0	0	0	0	0	0	0	0	0	0
5.102106094360352	4.799088589840942e-30	-2.146819163082456e-22	5.502173430792513e-29	5.643989912292769e-23	0.93	1.226998669601831e-23	2.8784047449139	-45.58622550674476	-39.99905253537201	64.05265682568417	1.117929756258208	-5.623233429506017	1.609380889251658e-17	2.17550387597072e-22	28.98055281930779	-10.33370530544381	-3.100494242240102e-21	54.47476536320626	0.9507640148393139	-5.623233429568613	9.180810476800682e-21	-1.741093913129696e-22	0	-1.499859541075598e-21	-5.962834205535554e-30	4.076449343727986e-16	-2.709540375371638e-25	7.4803782673812e-16	0	0	-3.061631173169177e-22	-1.535386048842343e-22	5.033812768869113e-16	-1.252059589114029e-15	1.855869975130151e-16	0	0	6.541082145881975e-21	-1.85045867486425e-22
5.108093976974487	0	0	0	0	0.93	0	2.845143828703608	-45.5642748071311	-39.99905288304179	63.98688211174647	1.116781770935438	-5.619583025417669	0	0	29.00444323378922	-10.33217219511306	2.504494349885089e-18	54.48128121796933	0.9508777379585113	-5.619583025454634	0	0	0	0	0	0	0	0	9.746859733731628e-38	4.209429071474227e-38	0	0	0	0	0	6.391315898120872e-38	0	0	0
5.114089965820312	0	0	0	0	0.93	0	2.856097064546194	-45.53558259387859	-39.99905360891876	63.89538349092337	1.115184818741041	-5.615346106287951	0	0	29.03247700409954	-10.33038747803194	2.504494349885089e-18	54.48894748850697	0.9510115396207418	-5.615346106324661	0	0	0	0	0	0	0	0	0	0	0	0	0	0	0	0	0	0	0
5.119097948074341	0	0	-4.310455369189608e-35	0	0.93	0	3.098085255033868	-45.11477101087974	-39.99905158323453	63.53529474062921	1.108900084449016	-5.6127555083604	0	0	29.04908246519241	-10.32930333614179	2.504494349885089e-18	54.49341344388802	0.9510894852463883	-5.612755508396957	0	0	0	0	0	0	-4.041051908615258e-36	0	0	0	0	0	0	0	0	0	0	0	0
5.145092010498047	0	0	0	0	0.93	0	5.753229916123239	-45.18704451690951	-39.99907204971107	61.21194689941082	1.068350014950653	-5.59217450816776	0	0	29.24183386867099	-10.32001757108097	2.504494349885089e-18	54.55818829220151	0.9522200196219385	-5.592174508203088	0	0	0	0	0	0	0	0	0	1.036170199201185e-38	0	0	0	0	0	0	1.036170199201185e-38	0	0
5.151093006134033	0	0	0	0	0.93	0	5.857210194793486	-44.7683564738506	-39.99907586037989	60.82180197712844	1.061540701496888	-5.589995485887281	0	0	29.25603244862804	-10.3191013687706	2.504494349885089e-18	54.56200082482652	0.9522865608690846	-5.589995485922481	0	0	0	0	0	0	0	0	4.672157231156296e-41	0	0	0	0	0	0	4.672157231156296e-41	0	0	0
5.155086040496826	0	0	0	0	0.93	0	6.627684360163086	-44.59534287601893	-39.99908490289829	59.95970786315112	1.046494320745921	-5.581152989291941	0	0	29.33614640361326	-10.31513776860943	2.504494349885089e-18	54.58827716340171	0.9527451694925905	-5.58115298932661	0	0	0	0	0	0	0	0	4.117128767643692e-39	0	0	0	0	0	0	4.117128767643692e-39	0	0	0
5.161092042922974	-3.168193791415191e-27	-5.953915148898025e-20	2.559712712783463e-27	5.15336752794804e-21	0.93	2.021972931293944e-21	6.748926532973575	-44.15491606962991	-39.99908978378368	59.54441026499775	1.03924601028252	-5.579071279802938	-4.221643240369967e-21	9.989750476749272e-25	29.34980512061565	-10.31426052013454	2.504494349885089e-18	54.59193909669083	0.952809082285474	-5.579071279837511	-3.243355862187447e-23	2.233422914297232e-22	-4.887501933565614e-35	-3.03192957203287e-28	9.195098290092219e-27	-9.113558614567312e-18	2.009053620804862e-16	5.300102105754685e-17	1.003715553812831e-15	1.003718301693636e-15	-3.971182957247915e-20	5.497218397155187e-22	3.326165605788428e-18	1.987690979169355e-16	1.329038506244339e-16	1.003715676576021e-15	1.003716180603578e-15	1.068085094255361e-19	1.099780497911504e-21
5.167093992233276	-2.625647011426797e-27	-1.058003852330355e-26	-5.691693344908942e-27	-1.730074239733446e-25	0.93	-3.268551597902858e-26	7.048577490099754	-44.02313245209407	-39.99909406401917	59.2386960868731	1.033910291304216	-5.575797760024491	-1.283346553855983e-18	5.763499329365418e-21	29.37173193339328	-10.31287393592888	4.457756929857002e-18	54.59785955749281	0.9529124138197038	-5.575797760058787	4.600804596605203e-18	-1.475035764419891e-19	-4.997713200381543e-18	-1.243154404986054e-17	3.375840485786534e-18	-4.29773712846925e-18	1.144483254087379e-17	-1.93760228517577e-18	1.68355127419429e-16	1.684376760533826e-16	1.298807134638125e-21	1.246992541659859e-18	7.896282724579252e-18	2.677105047684351e-18	-2.044814205000488e-17	1.683792953801929e-16	1.681998656189186e-16	-2.782494891410476e-22	2.707951862456164e-18
5.172111988067627	-3.021888509244649e-27	3.931040708786975e-20	-3.227347463583191e-27	-1.27081943339464e-22	0.93	-8.452752444370975e-22	7.210038954003894	-43.61767210159897	-39.99909832551131	58.8601841971022	1.027304012569768	-5.573744049394683	-2.787173867796067e-18	1.448555582450699e-21	29.38524842181816	-10.31200742428409	4.459572980738554e-18	54.60147968364279	0.9529755969403584	-5.573744049429092	6.610702236524666e-23	3.464987122968144e-21	-7.363292279864456e-30	7.918875511009808e-21	1.064634199089698e-28	-1.020093814880002e-16	-1.363194959126965e-26	1.400989175730219e-16	4.159806602307518e-15	4.159463303833116e-15	-3.647345526104161e-19	4.934277471644563e-21	4.200699522611324e-16	7.378383301521385e-17	1.018112208210983e-16	4.159819080129579e-15	4.156156245352219e-15	4.54673621437782e-19	1.05879476009925e-20
5.183080911636352	0	0	0	0	0.93	0	7.423803909943362	-43.31400215674419	-39.99910081821434	58.58836765379237	1.022559918927622	-5.571624757362988	0	0	29.39925423367426	-10.31111220425121	4.459572980738554e-18	54.60523393201323	0.9530411209353603	-5.571624757397265	0	0	0	0	0	0	0	0	1.293325002231877e-46	0	0	0	0	0	0	1.293325002231877e-46	0	0	0
5.192095994949341	0	0	0	0	0.93	0	8.535079935058537	-42.42692927283584	-39.99910553855121	57.86432629578386	1.009923013309763	-5.560498843201761	0	0	29.50721099596174	-10.30604320711503	4.459572980738554e-18	54.64150664549239	0.9536741992142042	-5.560498843235371	0	0	0	0	0	0	0	0	0	0	0	0	0	0	0	5.386246731304256e-39	0	0	0
5.199105024337768	-2.43339265003031e-26	1.209718275204641e-18	-7.893298802913205e-27	-8.554412535794667e-20	0.93	1.19030330102659e-21	8.855289995068219	-42.15619649402026	-39.99910683687958	57.63825450665072	1.005977316243515	-5.558370793762956	2.535516281576092e-18	-2.999510491532926e-23	29.5214621185413	-10.30514089085385	4.459572980738554e-18	54.6453264948824	0.9537408681629901	-5.558370793796662	-2.692764023771962e-19	1.226232605348872e-23	0	3.81753405018712e-20	2.327326715597496e-29	2.275749337201616e-15	1.085876637688122e-24	-1.464982187984129e-15	4.04611561477532e-15	4.045162430864663e-15	-6.192837875877999e-19	-5.175379005916004e-18	5.290293570831922e-15	-3.817108267132335e-15	-1.190402420887977e-14	4.044826675065343e-15	4.044876592352675e-15	-1.022330397454673e-18	-8.550374253725924e-19
